<?xml version="1.0" standalone="no"?>
<!DOCTYPE svg PUBLIC "-//W3C//DTD SVG 20010904//EN"
 "http://www.w3.org/TR/2001/REC-SVG-20010904/DTD/svg10.dtd">
<svg version="1.0" xmlns="http://www.w3.org/2000/svg"
 width="558.000000pt" height="558.000000pt" viewBox="0 0 558.000000 558.000000"
 preserveAspectRatio="xMidYMid meet">
<metadata>
Created by potrace 1.11, written by Peter Selinger 2001-2013
</metadata>
<g transform="translate(0.000000,558.000000) scale(0.100000,-0.100000)"
fill="#000000" stroke="none">
<path d="M1354 5144 c-43 -15 -96 -55 -123 -93 -18 -24 -55 -161 -77 -281 -6
-32 -127 -600 -159 -745 -13 -60 -26 -121 -29 -135 -2 -14 -27 -133 -56 -265
-29 -132 -54 -249 -56 -260 -8 -41 -14 -68 -88 -413 -42 -194 -78 -363 -80
-375 -7 -36 -86 -410 -93 -437 -9 -38 -10 -43 -16 -75 -3 -16 -10 -50 -15 -75
-6 -25 -13 -56 -16 -70 -3 -14 -8 -36 -11 -50 -6 -25 -22 -104 -31 -150 -3
-14 -10 -45 -15 -70 -6 -25 -13 -56 -15 -70 -8 -42 -64 -301 -79 -365 -8 -33
-17 -78 -22 -100 -4 -22 -8 -42 -8 -45 -2 -9 -17 -84 -21 -103 -2 -10 -5 -26
-8 -35 -3 -9 -7 -28 -10 -42 -2 -14 -18 -86 -34 -161 -16 -74 -28 -153 -26
-174 2 -41 25 -77 68 -109 26 -20 40 -21 429 -20 395 0 403 0 444 22 46 24 87
63 108 102 10 20 34 118 59 242 2 7 6 24 9 38 4 14 38 176 77 360 39 184 84
396 100 470 16 74 31 146 33 160 3 14 11 48 17 75 6 28 13 59 16 70 2 11 8 43
14 70 6 28 12 59 14 70 3 11 19 85 36 165 17 80 34 155 36 168 2 12 27 127 55
255 27 127 56 264 64 302 8 39 32 153 54 255 22 102 42 196 44 210 3 14 10 43
15 65 6 22 13 54 16 70 2 17 16 84 31 150 25 117 74 345 80 375 2 8 19 92 40
185 20 94 39 184 42 200 3 17 27 131 54 255 27 123 49 237 49 253 0 45 -28 94
-68 119 -36 22 -41 22 -425 23 -271 0 -400 -3 -423 -11z"/>
<path d="M3249 5144 c-50 -15 -101 -54 -129 -98 -11 -19 -34 -95 -50 -168 -42
-192 -91 -419 -96 -448 -3 -13 -12 -56 -20 -95 -9 -38 -17 -78 -19 -88 -2 -10
-7 -26 -9 -35 -3 -10 -8 -31 -10 -47 -2 -17 -25 -127 -51 -245 -73 -337 -77
-353 -81 -380 -4 -20 -12 -61 -19 -90 -1 -3 -7 -30 -13 -60 -13 -57 -16 -74
-32 -150 -5 -25 -18 -88 -30 -140 -11 -52 -47 -221 -80 -375 -93 -436 -100
-469 -105 -485 -2 -8 -7 -31 -10 -50 -3 -19 -17 -87 -31 -150 -14 -63 -28
-126 -30 -140 -4 -20 -20 -95 -39 -180 -10 -46 -67 -319 -71 -339 -3 -12 -11
-51 -19 -85 -8 -33 -16 -72 -19 -86 -6 -33 -56 -271 -61 -290 -23 -99 -67
-312 -69 -338 -5 -45 31 -112 74 -136 32 -19 54 -20 415 -21 209 -1 396 3 415
8 49 12 104 52 134 97 21 32 32 70 62 210 3 14 25 117 49 230 24 113 46 216
49 230 2 14 12 59 21 100 9 41 19 86 21 100 3 14 16 75 29 135 14 61 27 121
29 135 4 21 150 702 161 750 2 8 10 49 19 90 8 41 26 127 40 190 14 63 27 126
30 140 2 14 10 48 16 75 6 28 13 59 16 70 2 11 6 31 9 45 3 14 7 35 9 46 3 12
14 66 26 120 12 55 24 110 26 124 3 13 28 128 55 255 27 126 57 264 65 305 9
41 17 82 19 90 3 15 70 330 79 372 3 13 19 88 36 168 18 80 34 156 36 170 3
14 19 91 37 172 29 130 32 153 22 192 -14 53 -27 71 -69 94 -27 14 -81 16
-414 17 -266 0 -395 -3 -423 -11z"/>
<path d="M4554 3962 c-11 -7 -23 -50 -46 -167 -14 -74 -11 -58 -42 -195 -15
-63 -36 -155 -47 -205 -12 -49 -22 -97 -24 -105 -16 -63 -131 -564 -159 -685
-13 -60 -34 -148 -45 -195 -26 -105 -98 -416 -105 -450 -3 -14 -17 -79 -31
-145 -22 -98 -26 -136 -22 -210 3 -49 8 -101 11 -115 58 -263 120 -552 133
-620 2 -14 10 -50 18 -80 7 -30 16 -71 19 -90 18 -117 68 -203 144 -247 l47
-28 389 0 c444 0 448 0 485 74 27 53 28 106 1 221 -12 52 -23 104 -26 115 -2
11 -28 136 -59 279 -30 142 -57 268 -59 280 -2 11 -16 77 -31 146 -15 69 -29
134 -31 145 -2 11 -6 29 -8 40 -28 127 -88 407 -92 430 -2 17 -7 37 -9 45 -6
19 -39 174 -65 304 -11 54 -22 101 -24 105 -3 3 -7 26 -11 51 -4 25 -8 48 -11
51 -2 4 -6 24 -10 45 -3 22 -19 98 -34 169 -16 72 -31 141 -33 155 -3 14 -23
108 -46 210 -22 102 -59 273 -81 380 -42 198 -69 300 -79 300 -3 0 -11 -4 -17
-8z"/>
</g>
</svg>
