<?xml version="1.0" standalone="no"?>
<!DOCTYPE svg PUBLIC "-//W3C//DTD SVG 20010904//EN"
 "http://www.w3.org/TR/2001/REC-SVG-20010904/DTD/svg10.dtd">
<svg version="1.0" xmlns="http://www.w3.org/2000/svg"
 width="428.000000pt" height="428.000000pt" viewBox="0 0 428.000000 428.000000"
 preserveAspectRatio="xMidYMid meet">
<metadata>
Created by potrace 1.11, written by Peter Selinger 2001-2013
</metadata>
<g transform="translate(0.000000,428.000000) scale(0.100000,-0.100000)"
fill="#000000" stroke="none">
<path d="M815 3990 c-3 -11 -8 -32 -11 -47 -2 -16 -20 -108 -40 -205 -19 -97
-37 -187 -39 -200 -3 -13 -16 -79 -30 -148 -13 -69 -26 -136 -29 -150 -2 -14
-9 -46 -15 -73 -6 -26 -14 -64 -17 -85 -3 -20 -7 -43 -10 -51 -2 -8 -7 -30
-10 -50 -3 -20 -14 -76 -24 -126 -11 -49 -22 -103 -24 -120 -3 -16 -17 -86
-31 -155 -14 -69 -28 -138 -31 -155 -3 -16 -9 -49 -15 -73 -5 -23 -12 -59 -15
-80 -3 -20 -9 -53 -14 -72 -5 -19 -12 -51 -15 -70 -3 -19 -12 -66 -20 -105 -8
-38 -16 -83 -19 -100 -3 -16 -8 -39 -10 -50 -3 -11 -20 -101 -40 -200 -19 -99
-42 -211 -50 -250 -8 -38 -17 -83 -19 -100 -3 -16 -33 -169 -66 -340 -34 -171
-64 -321 -67 -335 -2 -14 -6 -35 -9 -48 -2 -13 -6 -31 -9 -40 -3 -9 -8 -35
-11 -57 -4 -22 -10 -55 -15 -73 l-8 -32 367 0 367 0 17 93 c10 50 20 106 23
122 3 17 23 124 45 240 22 116 42 224 45 240 5 32 35 190 84 450 38 203 33
178 61 333 13 72 26 132 30 132 4 0 13 -17 21 -37 12 -32 14 -140 13 -663 l-1
-625 -38 -130 c-22 -72 -41 -136 -43 -143 -4 -10 58 -12 303 -10 l309 3 1 241
c1 133 4 246 8 252 4 7 18 11 31 10 22 -2 65 -67 172 -263 12 -22 63 -114 115
-205 127 -224 123 -224 233 -15 192 366 259 485 273 485 22 0 36 -114 36 -305
l1 -200 307 -3 306 -2 -13 47 c-7 27 -26 91 -41 143 l-27 95 -1 638 c-1 350 2
629 6 618 4 -11 12 -46 17 -78 6 -32 13 -69 16 -83 3 -13 7 -42 11 -64 3 -22
7 -43 9 -46 2 -3 6 -25 10 -50 4 -24 29 -166 56 -315 28 -148 54 -292 59 -320
4 -27 15 -88 24 -135 25 -134 25 -139 47 -259 11 -62 23 -130 27 -150 l8 -36
379 -3 c209 -1 385 0 392 2 9 4 8 18 -2 58 -8 29 -17 69 -20 88 -3 19 -13 69
-21 110 -9 41 -18 86 -20 100 -2 14 -11 57 -19 95 -8 39 -17 86 -20 105 -3 19
-10 53 -15 75 -5 22 -11 55 -15 73 -3 18 -12 64 -20 102 -8 38 -17 84 -20 102
-4 18 -15 76 -26 128 -30 147 -39 195 -44 221 -3 13 -46 229 -96 479 -50 250
-93 466 -95 480 -3 14 -12 59 -20 100 -9 41 -18 86 -20 100 -3 14 -23 115 -45
225 -22 110 -42 209 -44 220 -3 22 -53 274 -112 563 l-36 182 -29 0 c-32 0
-43 -16 -268 -377 -28 -46 -52 -83 -53 -83 -1 0 -2 101 -2 225 l0 225 -266 0
-265 0 0 -637 c1 -351 -1 -648 -3 -660 -2 -13 -9 -23 -16 -23 -11 0 -28 51
-89 270 -162 584 -303 1060 -313 1060 -6 0 -14 -4 -17 -9 -5 -7 -145 -485
-186 -631 -10 -36 -55 -191 -100 -345 -44 -154 -83 -291 -86 -305 -8 -37 -18
-43 -39 -20 -17 19 -18 53 -19 660 l0 640 -265 -2 -266 -3 0 -222 c0 -122 -3
-219 -6 -215 -4 4 -61 93 -129 197 -175 273 -161 255 -192 255 -18 0 -29 -7
-33 -20z"/>
</g>
</svg>
